# xmcd CD database file
#
# Track frame offsets:
#	150
#	12197
#	23827
#	38997
#	54427
#	65707
#	82847
#	97047
#	112047
#	122522
#	136197
#	151422
#	165647
#	180472
#	199322
#	213322
#	228722
#	241847
#	256080
#	269372
#	284172
#	302507
#	314305
#	324612
#
# Disc length: 4592 seconds
#
# Revision: 0
# Processed by: cddbd v1.5PL3 Copyright (c) Steve Scherf et al.
# Submitted via: CDex 1.50
#
DISCID=5011ee18
DTITLE=Django Reinhardt - September Song
DYEAR=1900
DGENRE=Jazz
TTITLE0=The Shake Of Aravy
TTITLE1=Honeysuckle Rose
TTITLE2=Nuages
TTITLE3=September Song
TTITLE4=Louise
TTITLE5=DJango's Dream
TTITLE6=Swing Time In Springtime
TTITLE7=Stockholm
TTITLE8=Feerie
TTITLE9=Sweet Chorus
TTITLE10=Song D'Automne
TTITLE11=I Love You For Sentimental Reasons
TTITLE12=Just One Of Those Things
TTITLE13=Lover Man
TTITLE14=It Had To Be You
TTITLE15=Ol' Man River
TTITLE16=R-26
TTITLE17=How Higi The Moon
TTITLE18=Swing Guitars
TTITLE19=I Love You
TTITLE20=Troublant Bolero
TTITLE21=C Jam Blues
TTITLE22=Night And Day
TTITLE23=I Can't Give You Anything But Love,Baby
EXTD=
EXTT0=
EXTT1=
EXTT2=
EXTT3=
EXTT4=
EXTT5=
EXTT6=
EXTT7=
EXTT8=
EXTT9=
EXTT10=
EXTT11=
EXTT12=
EXTT13=
EXTT14=
EXTT15=
EXTT16=
EXTT17=
EXTT18=
EXTT19=
EXTT20=
EXTT21=
EXTT22=
EXTT23=
PLAYORDER=
